<?xml version="1.0" standalone="no"?>
<!DOCTYPE svg PUBLIC "-//W3C//DTD SVG 20010904//EN"
 "http://www.w3.org/TR/2001/REC-SVG-20010904/DTD/svg10.dtd">
<svg version="1.0" xmlns="http://www.w3.org/2000/svg"
 width="198.000000pt" height="255.000000pt" viewBox="0 0 198.000000 255.000000"
 preserveAspectRatio="xMidYMid meet">

<g transform="translate(0.000000,255.000000) scale(0.100000,-0.100000)"
fill="#fff" stroke="none">
<path d="M873 2535 c-241 -52 -423 -278 -423 -525 0 -132 63 -280 161 -378
106 -105 231 -156 384 -155 145 2 260 48 364 146 216 206 221 556 10 767 -130
129 -317 184 -496 145z"/>
<path d="M798 1400 c-435 -110 -755 -559 -793 -1112 -8 -115 -3 -129 67 -164
237 -120 1044 -161 1543 -79 200 34 337 83 354 128 11 29 -3 229 -23 322 -57
269 -178 497 -352 665 -110 106 -224 177 -352 220 -87 30 -111 33 -232 36
-109 3 -150 0 -212 -16z"/>
</g>
</svg>
