<svg version="1.0" xmlns="http://www.w3.org/2000/svg"
 width="178.000000pt" height="181.000000pt" viewBox="0 0 178.000000 181.000000"
 preserveAspectRatio="xMidYMid meet">
<g transform="translate(0.000000,181.000000) scale(0.100000,-0.100000)"
fill="#fff" stroke="none">
<path d="M1385 1634 c-320 -49 -585 -183 -811 -409 -202 -201 -327 -429 -385
-700 -22 -105 -26 -269 -6 -282 39 -25 93 -33 230 -33 122 0 154 3 178 17 35
21 36 23 54 145 8 54 24 124 35 156 11 31 20 64 20 75 0 10 -38 57 -85 106
l-85 88 36 59 c49 81 77 118 153 198 70 72 184 169 238 201 l32 18 82 -77 c99
-93 115 -101 172 -81 71 24 210 55 248 55 21 0 47 8 63 21 l26 20 0 173 c0
185 -7 225 -45 250 -28 19 -31 19 -150 0z"/>
</g>
</svg>
