<svg version="1.0" xmlns="http://www.w3.org/2000/svg"
 width="186.000000pt" height="172.000000pt" viewBox="0 0 186.000000 172.000000"
 preserveAspectRatio="xMidYMid meet">
<g transform="translate(0.000000,172.000000) scale(0.100000,-0.100000)"
fill="#fff" stroke="none">
<path d="M155 1436 c-16 -7 -39 -23 -50 -36 -19 -21 -20 -36 -20 -470 0 -434
1 -449 20 -470 44 -49 51 -50 572 -50 304 0 502 4 525 10 22 6 46 23 58 39 19
28 20 42 20 471 0 429 -1 443 -20 471 -12 16 -36 33 -58 39 -59 16 -1009 13
-1047 -4z"/>
<path d="M1560 1188 l-160 -142 0 -116 0 -116 160 -142 c166 -147 190 -160
223 -124 15 17 17 58 17 384 0 341 -1 366 -18 381 -10 10 -28 17 -40 17 -13 0
-82 -54 -182 -142z"/>
</g>
</svg>
