<?xml version="1.0" standalone="no"?>
<svg version="1.0" xmlns="http://www.w3.org/2000/svg"
 width="143.000000pt" height="185.000000pt" viewBox="0 0 143.000000 185.000000"
 preserveAspectRatio="xMidYMid meet">
<g transform="translate(0.000000,185.000000) scale(0.100000,-0.100000)"
fill="#fff" stroke="none">
<path d="M628 1701 c-133 -43 -192 -189 -124 -305 78 -134 274 -134 352 0 57
96 25 223 -70 279 -47 28 -116 39 -158 26z"/>
<path d="M634 1151 c-179 -44 -216 -285 -58 -377 181 -106 386 99 280 280 -43
74 -141 117 -222 97z"/>
<path d="M634 601 c-134 -33 -200 -186 -130 -305 105 -179 379 -105 379 104 0
131 -125 231 -249 201z"/>
</g>
</svg>
